<svg xmlns="http://www.w3.org/2000/svg" xmlns:xlink="http://www.w3.org/1999/xlink" id="processonSvg1000" viewBox="37.0 125.375 968.0 600.625" width="968.0" height="600.625"><defs id="ProcessOnDefs1001"><marker id="ProcessOnMarker1025" markerUnits="userSpaceOnUse" orient="auto" markerWidth="16.23606797749979" markerHeight="10.550836550532098" viewBox="-1.0 -1.3763819204711736 16.23606797749979 10.550836550532098" refX="-1.0" refY="3.8990363547948754"><path id="ProcessOnPath1026" d="M12.0 3.8990363547948754L0.0 7.798072709589751V0.0Z" stroke="#323232" stroke-width="2.0" fill="#323232" transform="matrix(1.0,0.0,0.0,1.0,0.0,0.0)"/></marker><marker id="ProcessOnMarker1033" markerUnits="userSpaceOnUse" orient="auto" markerWidth="16.23606797749979" markerHeight="10.550836550532098" viewBox="-1.0 -1.3763819204711736 16.23606797749979 10.550836550532098" refX="-1.0" refY="3.8990363547948754"><path id="ProcessOnPath1034" d="M12.0 3.8990363547948754L0.0 7.798072709589751V0.0Z" stroke="#323232" stroke-width="2.0" fill="#323232" transform="matrix(1.0,0.0,0.0,1.0,0.0,0.0)"/></marker><marker id="ProcessOnMarker1046" markerUnits="userSpaceOnUse" orient="auto" markerWidth="16.23606797749979" markerHeight="10.550836550532098" viewBox="-1.0 -1.3763819204711736 16.23606797749979 10.550836550532098" refX="-1.0" refY="3.8990363547948754"><path id="ProcessOnPath1047" d="M12.0 3.8990363547948754L0.0 7.798072709589751V0.0Z" stroke="#323232" stroke-width="2.0" fill="#323232" transform="matrix(1.0,0.0,0.0,1.0,0.0,0.0)"/></marker><marker id="ProcessOnMarker1060" markerUnits="userSpaceOnUse" orient="auto" markerWidth="16.23606797749979" markerHeight="10.550836550532098" viewBox="-1.0 -1.3763819204711736 16.23606797749979 10.550836550532098" refX="-1.0" refY="3.8990363547948754"><path id="ProcessOnPath1061" d="M12.0 3.8990363547948754L0.0 7.798072709589751V0.0Z" stroke="#323232" stroke-width="2.0" fill="#323232" transform="matrix(1.0,0.0,0.0,1.0,0.0,0.0)"/></marker><marker id="ProcessOnMarker1064" markerUnits="userSpaceOnUse" orient="auto" markerWidth="16.23606797749979" markerHeight="10.550836550532098" viewBox="-1.0 -1.3763819204711736 16.23606797749979 10.550836550532098" refX="-1.0" refY="3.8990363547948754"><path id="ProcessOnPath1065" d="M12.0 3.8990363547948754L0.0 7.798072709589751V0.0Z" stroke="#323232" stroke-width="2.0" fill="#323232" transform="matrix(1.0,0.0,0.0,1.0,0.0,0.0)"/></marker><marker id="ProcessOnMarker1076" markerUnits="userSpaceOnUse" orient="auto" markerWidth="16.23606797749979" markerHeight="10.550836550532098" viewBox="-1.0 -1.3763819204711736 16.23606797749979 10.550836550532098" refX="-1.0" refY="3.8990363547948754"><path id="ProcessOnPath1077" d="M12.0 3.8990363547948754L0.0 7.798072709589751V0.0Z" stroke="#323232" stroke-width="2.0" fill="#323232" transform="matrix(1.0,0.0,0.0,1.0,0.0,0.0)"/></marker><marker id="ProcessOnMarker1096" markerUnits="userSpaceOnUse" orient="auto" markerWidth="16.23606797749979" markerHeight="10.550836550532098" viewBox="-1.0 -1.3763819204711736 16.23606797749979 10.550836550532098" refX="-1.0" refY="3.8990363547948754"><path id="ProcessOnPath1097" d="M12.0 3.8990363547948754L0.0 7.798072709589751V0.0Z" stroke="#323232" stroke-width="2.0" fill="#323232" transform="matrix(1.0,0.0,0.0,1.0,0.0,0.0)"/></marker><marker id="ProcessOnMarker1100" markerUnits="userSpaceOnUse" orient="auto" markerWidth="16.23606797749979" markerHeight="10.550836550532098" viewBox="-1.0 -1.3763819204711736 16.23606797749979 10.550836550532098" refX="-1.0" refY="3.8990363547948754"><path id="ProcessOnPath1101" d="M12.0 3.8990363547948754L0.0 7.798072709589751V0.0Z" stroke="#323232" stroke-width="2.0" fill="#323232" transform="matrix(1.0,0.0,0.0,1.0,0.0,0.0)"/></marker><marker id="ProcessOnMarker1104" markerUnits="userSpaceOnUse" orient="auto" markerWidth="16.23606797749979" markerHeight="10.550836550532098" viewBox="-1.0 -1.3763819204711736 16.23606797749979 10.550836550532098" refX="-1.0" refY="3.8990363547948754"><path id="ProcessOnPath1105" d="M12.0 3.8990363547948754L0.0 7.798072709589751V0.0Z" stroke="#323232" stroke-width="2.0" fill="#323232" transform="matrix(1.0,0.0,0.0,1.0,0.0,0.0)"/></marker><marker id="ProcessOnMarker1128" markerUnits="userSpaceOnUse" orient="auto" markerWidth="16.23606797749979" markerHeight="10.550836550532098" viewBox="-1.0 -1.3763819204711736 16.23606797749979 10.550836550532098" refX="-1.0" refY="3.8990363547948754"><path id="ProcessOnPath1129" d="M12.0 3.8990363547948754L0.0 7.798072709589751V0.0Z" stroke="#323232" stroke-width="2.0" fill="#323232" transform="matrix(1.0,0.0,0.0,1.0,0.0,0.0)"/></marker><marker id="ProcessOnMarker1136" markerUnits="userSpaceOnUse" orient="auto" markerWidth="16.23606797749979" markerHeight="10.550836550532098" viewBox="-1.0 -1.3763819204711736 16.23606797749979 10.550836550532098" refX="-1.0" refY="3.8990363547948754"><path id="ProcessOnPath1137" d="M12.0 3.8990363547948754L0.0 7.798072709589751V0.0Z" stroke="#323232" stroke-width="2.0" fill="#323232" transform="matrix(1.0,0.0,0.0,1.0,0.0,0.0)"/></marker><marker id="ProcessOnMarker1144" markerUnits="userSpaceOnUse" orient="auto" markerWidth="16.23606797749979" markerHeight="10.550836550532098" viewBox="-1.0 -1.3763819204711736 16.23606797749979 10.550836550532098" refX="-1.0" refY="3.8990363547948754"><path id="ProcessOnPath1145" d="M12.0 3.8990363547948754L0.0 7.798072709589751V0.0Z" stroke="#323232" stroke-width="2.0" fill="#323232" transform="matrix(1.0,0.0,0.0,1.0,0.0,0.0)"/></marker><marker id="ProcessOnMarker1152" markerUnits="userSpaceOnUse" orient="auto" markerWidth="16.23606797749979" markerHeight="10.550836550532098" viewBox="-1.0 -1.3763819204711736 16.23606797749979 10.550836550532098" refX="-1.0" refY="3.8990363547948754"><path id="ProcessOnPath1153" d="M12.0 3.8990363547948754L0.0 7.798072709589751V0.0Z" stroke="#323232" stroke-width="2.0" fill="#323232" transform="matrix(1.0,0.0,0.0,1.0,0.0,0.0)"/></marker><marker id="ProcessOnMarker1202" markerUnits="userSpaceOnUse" orient="auto" markerWidth="16.23606797749979" markerHeight="10.550836550532098" viewBox="-1.0 -1.3763819204711736 16.23606797749979 10.550836550532098" refX="-1.0" refY="3.8990363547948754"><path id="ProcessOnPath1203" d="M12.0 3.8990363547948754L0.0 7.798072709589751V0.0Z" stroke="#323232" stroke-width="2.0" fill="#323232" transform="matrix(1.0,0.0,0.0,1.0,0.0,0.0)"/></marker><marker id="ProcessOnMarker1216" markerUnits="userSpaceOnUse" orient="auto" markerWidth="16.23606797749979" markerHeight="10.550836550532098" viewBox="-1.0 -1.3763819204711736 16.23606797749979 10.550836550532098" refX="-1.0" refY="3.8990363547948754"><path id="ProcessOnPath1217" d="M12.0 3.8990363547948754L0.0 7.798072709589751V0.0Z" stroke="#323232" stroke-width="2.0" fill="#323232" transform="matrix(1.0,0.0,0.0,1.0,0.0,0.0)"/></marker><marker id="ProcessOnMarker1224" markerUnits="userSpaceOnUse" orient="auto" markerWidth="16.23606797749979" markerHeight="10.550836550532098" viewBox="-1.0 -1.3763819204711736 16.23606797749979 10.550836550532098" refX="-1.0" refY="3.8990363547948754"><path id="ProcessOnPath1225" d="M12.0 3.8990363547948754L0.0 7.798072709589751V0.0Z" stroke="#323232" stroke-width="2.0" fill="#323232" transform="matrix(1.0,0.0,0.0,1.0,0.0,0.0)"/></marker></defs><g id="ProcessOnG1002"><path id="ProcessOnPath1003" d="M37.0 125.375H1005.0V726.0H37.0V125.375Z" fill="none"/><g id="ProcessOnG1004"><g id="ProcessOnG1005" transform="matrix(1.0,0.0,0.0,1.0,193.75,631.0)" opacity="1.0"><path id="ProcessOnPath1006" d="M0.0 0.0L100.0 0.0L100.0 70.0L0.0 70.0Z" stroke="#323232" stroke-width="2.0" stroke-dasharray="none" opacity="1.0" fill="#ffffff"/></g><g id="ProcessOnG1007" transform="matrix(1.0,0.0,0.0,1.0,210.25,230.0)" opacity="1.0"><path id="ProcessOnPath1008" d="M0.0 28.75C0.0 -9.583333333333334 67.0 -9.583333333333334 67.0 28.75C67.0 67.08333333333333 0.0 67.08333333333333 0.0 28.75Z" stroke="#323232" stroke-width="2.0" stroke-dasharray="none" opacity="1.0" fill="#ffffff"/><g id="ProcessOnG1009" transform="matrix(1.0,0.0,0.0,1.0,10.0,20.625)"><text id="ProcessOnText1010" fill="#000000" font-size="13" x="22.5" y="13.325" font-family="微软雅黑" font-weight="normal" font-style="normal" text-decoration="none" family="微软雅黑" text-anchor="middle" size="13">arrete</text></g></g><g id="ProcessOnG1011" transform="matrix(1.0,0.0,0.0,1.0,661.25,228.25)" opacity="1.0"><path id="ProcessOnPath1012" d="M0.0 30.5C0.0 -10.166666666666666 66.0 -10.166666666666666 66.0 30.5C66.0 71.16666666666667 0.0 71.16666666666667 0.0 30.5Z" stroke="#323232" stroke-width="2.0" stroke-dasharray="none" opacity="1.0" fill="#ffffff"/><g id="ProcessOnG1013" transform="matrix(1.0,0.0,0.0,1.0,10.0,22.375)"><text id="ProcessOnText1014" fill="#000000" font-size="13" x="22.0" y="13.325" font-family="微软雅黑" font-weight="normal" font-style="normal" text-decoration="none" family="微软雅黑" text-anchor="middle" size="13">Initial</text></g></g><g id="ProcessOnG1015" transform="matrix(1.0,0.0,0.0,1.0,633.0,287.5)" opacity="1.0"><path id="ProcessOnPath1016" d="M0.0 0.0L197.0 0.0L197.0 44.0L0.0 44.0Z" stroke="none" stroke-width="0.0" stroke-dasharray="none" opacity="1.0" fill="none"/><g id="ProcessOnG1017" transform="matrix(1.0,0.0,0.0,1.0,0.0,13.875)"><text id="ProcessOnText1018" fill="#000000" font-size="13" x="97.5" y="13.325" font-family="微软雅黑" font-weight="normal" font-style="normal" text-decoration="none" family="微软雅黑" text-anchor="middle" size="13">lancer&lt;='1'</text></g></g><g id="ProcessOnG1019" transform="matrix(1.0,0.0,0.0,1.0,384.5,219.5)" opacity="1.0"><path id="ProcessOnPath1020" d="M0.0 0.0L160.0 0.0L160.0 40.0L0.0 40.0Z" stroke="none" stroke-width="0.0" stroke-dasharray="none" opacity="1.0" fill="none"/><g id="ProcessOnG1021" transform="matrix(1.0,0.0,0.0,1.0,0.0,11.875)"><text id="ProcessOnText1022" fill="#000000" font-size="13" x="79.0" y="13.325" font-family="微软雅黑" font-weight="normal" font-style="normal" text-decoration="none" family="微软雅黑" text-anchor="middle" size="13">start&lt;='1'</text></g></g><g id="ProcessOnG1023"><path id="ProcessOnPath1024" d="M210.25 258.75C141.25 246.0 199.25 189.0 216.34385551862755 222.61517543953627" stroke="#323232" stroke-width="2.0" stroke-dasharray="none" fill="none" marker-end="url(#ProcessOnMarker1025)"/></g><g id="ProcessOnG1027" transform="matrix(0.573576436351046,-0.8191520442889918,0.8191520442889918,0.573576436351046,107.23084420613648,271.8106348160984)" opacity="1.0"><path id="ProcessOnPath1028" d="M0.0 0.0L160.0 0.0L160.0 40.0L0.0 40.0Z" stroke="none" stroke-width="0.0" stroke-dasharray="none" opacity="1.0" fill="none"/><g id="ProcessOnG1029" transform="matrix(1.0,0.0,0.0,1.0,0.0,11.875)"><text id="ProcessOnText1030" fill="#000000" font-size="13" x="79.0" y="13.325" font-family="微软雅黑" font-weight="normal" font-style="normal" text-decoration="none" family="微软雅黑" text-anchor="middle" size="13">else</text></g></g><g id="ProcessOnG1031"><path id="ProcessOnPath1032" d="M704.3819194266973 230.00877048314362C736.75 172.25 762.75 243.25 739.291764568455 245.49133249215723" stroke="#323232" stroke-width="2.0" stroke-dasharray="none" fill="none" marker-end="url(#ProcessOnMarker1033)"/></g><g id="ProcessOnG1035" transform="matrix(0.8660254037844385,0.5000000000000002,-0.5000000000000002,0.8660254037844385,685.717967697245,138.1794919243112)" opacity="1.0"><path id="ProcessOnPath1036" d="M0.0 0.0L160.0 0.0L160.0 40.0L0.0 40.0Z" stroke="none" stroke-width="0.0" stroke-dasharray="none" opacity="1.0" fill="none"/><g id="ProcessOnG1037" transform="matrix(1.0,0.0,0.0,1.0,0.0,11.875)"><text id="ProcessOnText1038" fill="#000000" font-size="13" x="79.0" y="13.325" font-family="微软雅黑" font-weight="normal" font-style="normal" text-decoration="none" family="微软雅黑" text-anchor="middle" size="13">else</text></g></g><g id="ProcessOnG1039" transform="matrix(1.0,0.0,0.0,1.0,650.0,380.0)" opacity="1.0"><path id="ProcessOnPath1040" d="M0.0 29.25C0.0 -9.75 88.5 -9.75 88.5 29.25C88.5 68.25 0.0 68.25 0.0 29.25Z" stroke="#323232" stroke-width="2.0" stroke-dasharray="none" opacity="1.0" fill="#ffffff"/><g id="ProcessOnG1041" transform="matrix(1.0,0.0,0.0,1.0,10.0,13.0)"><text id="ProcessOnText1042" fill="#000000" font-size="13" x="33.25" y="13.325" font-family="微软雅黑" font-weight="normal" font-style="normal" text-decoration="none" family="微软雅黑" text-anchor="middle" size="13">compte6_</text><text id="ProcessOnText1043" fill="#000000" font-size="13" x="33.25" y="29.575" font-family="微软雅黑" font-weight="normal" font-style="normal" text-decoration="none" family="微软雅黑" text-anchor="middle" size="13">1</text></g></g><g id="ProcessOnG1044"><path id="ProcessOnPath1045" d="M694.25 289.25L694.25 334.625L694.25 334.625L694.25 364.7639320225002" stroke="#323232" stroke-width="2.0" stroke-dasharray="none" fill="none" marker-end="url(#ProcessOnMarker1046)"/></g><g id="ProcessOnG1048" transform="matrix(1.0,0.0,0.0,1.0,650.0,506.5)" opacity="1.0"><path id="ProcessOnPath1049" d="M0.0 30.5C0.0 -10.166666666666666 88.5 -10.166666666666666 88.5 30.5C88.5 71.16666666666667 0.0 71.16666666666667 0.0 30.5Z" stroke="#323232" stroke-width="2.0" stroke-dasharray="none" opacity="1.0" fill="#ffffff"/><g id="ProcessOnG1050" transform="matrix(1.0,0.0,0.0,1.0,10.0,14.25)"><text id="ProcessOnText1051" fill="#000000" font-size="13" x="33.25" y="13.325" font-family="微软雅黑" font-weight="normal" font-style="normal" text-decoration="none" family="微软雅黑" text-anchor="middle" size="13">compte6_</text><text id="ProcessOnText1052" fill="#000000" font-size="13" x="33.25" y="29.575" font-family="微软雅黑" font-weight="normal" font-style="normal" text-decoration="none" family="微软雅黑" text-anchor="middle" size="13">2</text></g></g><g id="ProcessOnG1053" transform="matrix(1.0,0.0,0.0,1.0,650.0,631.0)" opacity="1.0"><path id="ProcessOnPath1054" d="M0.0 31.5C0.0 -10.5 88.5 -10.5 88.5 31.5C88.5 73.5 0.0 73.5 0.0 31.5Z" stroke="#323232" stroke-width="2.0" stroke-dasharray="none" opacity="1.0" fill="#ffffff"/><g id="ProcessOnG1055" transform="matrix(1.0,0.0,0.0,1.0,10.0,15.25)"><text id="ProcessOnText1056" fill="#000000" font-size="13" x="33.25" y="13.325" font-family="微软雅黑" font-weight="normal" font-style="normal" text-decoration="none" family="微软雅黑" text-anchor="middle" size="13">compte6_</text><text id="ProcessOnText1057" fill="#000000" font-size="13" x="33.25" y="29.575" font-family="微软雅黑" font-weight="normal" font-style="normal" text-decoration="none" family="微软雅黑" text-anchor="middle" size="13">3</text></g></g><g id="ProcessOnG1058"><path id="ProcessOnPath1059" d="M694.25 438.5L694.25 472.5L694.25 472.5L694.25 491.2639320225002" stroke="#323232" stroke-width="2.0" stroke-dasharray="none" fill="none" marker-end="url(#ProcessOnMarker1060)"/></g><g id="ProcessOnG1062"><path id="ProcessOnPath1063" d="M694.25 567.5L694.25 599.25L694.25 599.25L694.25 615.7639320225002" stroke="#323232" stroke-width="2.0" stroke-dasharray="none" fill="none" marker-end="url(#ProcessOnMarker1064)"/></g><g id="ProcessOnG1066" transform="matrix(1.0,0.0,0.0,1.0,650.0,562.5)" opacity="1.0"><path id="ProcessOnPath1067" d="M0.0 0.0L197.0 0.0L197.0 44.0L0.0 44.0Z" stroke="none" stroke-width="0.0" stroke-dasharray="none" opacity="1.0" fill="none"/><g id="ProcessOnG1068" transform="matrix(1.0,0.0,0.0,1.0,0.0,13.875)"><text id="ProcessOnText1069" fill="#000000" font-size="13" x="97.5" y="13.325" font-family="微软雅黑" font-weight="normal" font-style="normal" text-decoration="none" family="微软雅黑" text-anchor="middle" size="13">lancer&lt;='1'</text></g></g><g id="ProcessOnG1070" transform="matrix(1.0,0.0,0.0,1.0,650.0,438.5)" opacity="1.0"><path id="ProcessOnPath1071" d="M0.0 0.0L197.0 0.0L197.0 44.0L0.0 44.0Z" stroke="none" stroke-width="0.0" stroke-dasharray="none" opacity="1.0" fill="none"/><g id="ProcessOnG1072" transform="matrix(1.0,0.0,0.0,1.0,0.0,13.875)"><text id="ProcessOnText1073" fill="#000000" font-size="13" x="97.5" y="13.325" font-family="微软雅黑" font-weight="normal" font-style="normal" text-decoration="none" family="微软雅黑" text-anchor="middle" size="13">lancer&lt;='1'</text></g></g><g id="ProcessOnG1074"><path id="ProcessOnPath1075" d="M277.25 258.75L469.25 258.75L469.25 258.75L646.0139320225002 258.75" stroke="#323232" stroke-width="2.0" stroke-dasharray="none" fill="none" marker-end="url(#ProcessOnMarker1076)"/></g><g id="ProcessOnG1078" transform="matrix(1.0,0.0,0.0,1.0,653.0,307.5)" opacity="1.0"><path id="ProcessOnPath1079" d="M0.0 0.0L197.0 0.0L197.0 44.0L0.0 44.0Z" stroke="none" stroke-width="0.0" stroke-dasharray="none" opacity="1.0" fill="none"/><g id="ProcessOnG1080" transform="matrix(1.0,0.0,0.0,1.0,0.0,13.875)"><text id="ProcessOnText1081" fill="#000000" font-size="13" x="97.5" y="13.325" font-family="微软雅黑" font-weight="normal" font-style="normal" text-decoration="none" family="微软雅黑" text-anchor="middle" size="13">en-module5&lt;='0'</text></g></g><g id="ProcessOnG1082" transform="matrix(1.0,0.0,0.0,1.0,668.5,462.5)" opacity="1.0"><path id="ProcessOnPath1083" d="M0.0 0.0L197.0 0.0L197.0 44.0L0.0 44.0Z" stroke="none" stroke-width="0.0" stroke-dasharray="none" opacity="1.0" fill="none"/><g id="ProcessOnG1084" transform="matrix(1.0,0.0,0.0,1.0,0.0,13.875)"><text id="ProcessOnText1085" fill="#000000" font-size="13" x="97.5" y="13.325" font-family="微软雅黑" font-weight="normal" font-style="normal" text-decoration="none" family="微软雅黑" text-anchor="middle" size="13">en-module5&lt;='0'</text></g></g><g id="ProcessOnG1086" transform="matrix(1.0,0.0,0.0,1.0,668.5,587.0)" opacity="1.0"><path id="ProcessOnPath1087" d="M0.0 0.0L197.0 0.0L197.0 44.0L0.0 44.0Z" stroke="none" stroke-width="0.0" stroke-dasharray="none" opacity="1.0" fill="none"/><g id="ProcessOnG1088" transform="matrix(1.0,0.0,0.0,1.0,0.0,13.875)"><text id="ProcessOnText1089" fill="#000000" font-size="13" x="97.5" y="13.325" font-family="微软雅黑" font-weight="normal" font-style="normal" text-decoration="none" family="微软雅黑" text-anchor="middle" size="13">en-module5&lt;='0'</text></g></g><g id="ProcessOnG1090" transform="matrix(1.0,0.0,0.0,1.0,422.25,506.5)" opacity="1.0"><path id="ProcessOnPath1091" d="M0.0 30.5C0.0 -10.166666666666666 104.75 -10.166666666666666 104.75 30.5C104.75 71.16666666666667 0.0 71.16666666666667 0.0 30.5Z" stroke="#323232" stroke-width="2.0" stroke-dasharray="none" opacity="1.0" fill="#ffffff"/><g id="ProcessOnG1092" transform="matrix(1.0,0.0,0.0,1.0,10.0,22.375)"><text id="ProcessOnText1093" fill="#000000" font-size="13" x="41.375" y="13.325" font-family="微软雅黑" font-weight="normal" font-style="normal" text-decoration="none" family="微软雅黑" text-anchor="middle" size="13">Enregitsre</text></g></g><g id="ProcessOnG1094"><path id="ProcessOnPath1095" d="M650.0 409.25L474.625 409.25L474.625 491.2639320225002" stroke="#323232" stroke-width="2.0" stroke-dasharray="none" fill="none" marker-end="url(#ProcessOnMarker1096)"/></g><g id="ProcessOnG1098"><path id="ProcessOnPath1099" d="M650.0 662.5L474.625 662.5L474.625 582.7360679774998" stroke="#323232" stroke-width="2.0" stroke-dasharray="none" fill="none" marker-end="url(#ProcessOnMarker1100)"/></g><g id="ProcessOnG1102"><path id="ProcessOnPath1103" d="M650.0 537.0L588.5 537.0L588.5 537.0L542.2360679774998 537.0" stroke="#323232" stroke-width="2.0" stroke-dasharray="none" fill="none" marker-end="url(#ProcessOnMarker1104)"/></g><g id="ProcessOnG1106" transform="matrix(1.0,0.0,0.0,1.0,448.0,353.5)" opacity="1.0"><path id="ProcessOnPath1107" d="M0.0 0.0L197.0 0.0L197.0 44.0L0.0 44.0Z" stroke="none" stroke-width="0.0" stroke-dasharray="none" opacity="1.0" fill="none"/><g id="ProcessOnG1108" transform="matrix(1.0,0.0,0.0,1.0,0.0,13.875)"><text id="ProcessOnText1109" fill="#000000" font-size="13" x="97.5" y="13.325" font-family="微软雅黑" font-weight="normal" font-style="normal" text-decoration="none" family="微软雅黑" text-anchor="middle" size="13"> lancer&lt;='0'</text></g></g><g id="ProcessOnG1110" transform="matrix(1.0,0.0,0.0,1.0,468.0,373.5)" opacity="1.0"><path id="ProcessOnPath1111" d="M0.0 0.0L197.0 0.0L197.0 44.0L0.0 44.0Z" stroke="none" stroke-width="0.0" stroke-dasharray="none" opacity="1.0" fill="none"/><g id="ProcessOnG1112" transform="matrix(1.0,0.0,0.0,1.0,0.0,13.875)"><text id="ProcessOnText1113" fill="#000000" font-size="13" x="97.5" y="13.325" font-family="微软雅黑" font-weight="normal" font-style="normal" text-decoration="none" family="微软雅黑" text-anchor="middle" size="13">en-module5&lt;='1'</text></g></g><g id="ProcessOnG1114" transform="matrix(1.0,0.0,0.0,1.0,476.0,479.5)" opacity="1.0"><path id="ProcessOnPath1115" d="M0.0 0.0L197.0 0.0L197.0 44.0L0.0 44.0Z" stroke="none" stroke-width="0.0" stroke-dasharray="none" opacity="1.0" fill="none"/><g id="ProcessOnG1116" transform="matrix(1.0,0.0,0.0,1.0,0.0,13.875)"><text id="ProcessOnText1117" fill="#000000" font-size="13" x="97.5" y="13.325" font-family="微软雅黑" font-weight="normal" font-style="normal" text-decoration="none" family="微软雅黑" text-anchor="middle" size="13"> lancer&lt;='0'</text></g></g><g id="ProcessOnG1118" transform="matrix(1.0,0.0,0.0,1.0,496.0,499.5)" opacity="1.0"><path id="ProcessOnPath1119" d="M0.0 0.0L197.0 0.0L197.0 44.0L0.0 44.0Z" stroke="none" stroke-width="0.0" stroke-dasharray="none" opacity="1.0" fill="none"/><g id="ProcessOnG1120" transform="matrix(1.0,0.0,0.0,1.0,0.0,13.875)"><text id="ProcessOnText1121" fill="#000000" font-size="13" x="97.5" y="13.325" font-family="微软雅黑" font-weight="normal" font-style="normal" text-decoration="none" family="微软雅黑" text-anchor="middle" size="13">en-module5&lt;='1'</text></g></g><g id="ProcessOnG1122" transform="matrix(1.0,0.0,0.0,1.0,476.0,624.5)" opacity="1.0"><path id="ProcessOnPath1123" d="M0.0 0.0L197.0 0.0L197.0 44.0L0.0 44.0Z" stroke="none" stroke-width="0.0" stroke-dasharray="none" opacity="1.0" fill="none"/><g id="ProcessOnG1124" transform="matrix(1.0,0.0,0.0,1.0,0.0,13.875)"><text id="ProcessOnText1125" fill="#000000" font-size="13" x="97.5" y="13.325" font-family="微软雅黑" font-weight="normal" font-style="normal" text-decoration="none" family="微软雅黑" text-anchor="middle" size="13"> lancer&lt;='0'</text></g></g><g id="ProcessOnG1126"><path id="ProcessOnPath1127" d="M734.8038475772934 420.0C819.0 451.0 815.0 375.0 749.2325411338595 392.9817342891067" stroke="#323232" stroke-width="2.0" stroke-dasharray="none" fill="none" marker-end="url(#ProcessOnMarker1128)"/></g><g id="ProcessOnG1130" transform="matrix(1.0,0.0,0.0,1.0,738.5,387.5)" opacity="1.0"><path id="ProcessOnPath1131" d="M0.0 0.0L160.0 0.0L160.0 40.0L0.0 40.0Z" stroke="none" stroke-width="0.0" stroke-dasharray="none" opacity="1.0" fill="none"/><g id="ProcessOnG1132" transform="matrix(1.0,0.0,0.0,1.0,0.0,11.875)"><text id="ProcessOnText1133" fill="#000000" font-size="13" x="79.0" y="13.325" font-family="微软雅黑" font-weight="normal" font-style="normal" text-decoration="none" family="微软雅黑" text-anchor="middle" size="13">else</text></g></g><g id="ProcessOnG1134"><path id="ProcessOnPath1135" d="M736.7858983848623 547.0C820.9820508075688 578.0 816.9820508075688 502.0 751.2145919414285 519.9817342891067" stroke="#323232" stroke-width="2.0" stroke-dasharray="none" fill="none" marker-end="url(#ProcessOnMarker1136)"/></g><g id="ProcessOnG1138" transform="matrix(1.0,0.0,0.0,1.0,740.4820508075688,514.5)" opacity="1.0"><path id="ProcessOnPath1139" d="M0.0 0.0L160.0 0.0L160.0 40.0L0.0 40.0Z" stroke="none" stroke-width="0.0" stroke-dasharray="none" opacity="1.0" fill="none"/><g id="ProcessOnG1140" transform="matrix(1.0,0.0,0.0,1.0,0.0,11.875)"><text id="ProcessOnText1141" fill="#000000" font-size="13" x="79.0" y="13.325" font-family="微软雅黑" font-weight="normal" font-style="normal" text-decoration="none" family="微软雅黑" text-anchor="middle" size="13">else</text></g></g><g id="ProcessOnG1142"><path id="ProcessOnPath1143" d="M740.75 675.0C824.9461524227065 706.0 820.9461524227065 630.0 755.1786935565661 647.9817342891067" stroke="#323232" stroke-width="2.0" stroke-dasharray="none" fill="none" marker-end="url(#ProcessOnMarker1144)"/></g><g id="ProcessOnG1146" transform="matrix(1.0,0.0,0.0,1.0,744.4461524227065,642.5)" opacity="1.0"><path id="ProcessOnPath1147" d="M0.0 0.0L160.0 0.0L160.0 40.0L0.0 40.0Z" stroke="none" stroke-width="0.0" stroke-dasharray="none" opacity="1.0" fill="none"/><g id="ProcessOnG1148" transform="matrix(1.0,0.0,0.0,1.0,0.0,11.875)"><text id="ProcessOnText1149" fill="#000000" font-size="13" x="79.0" y="13.325" font-family="微软雅黑" font-weight="normal" font-style="normal" text-decoration="none" family="微软雅黑" text-anchor="middle" size="13">else</text></g></g><g id="ProcessOnG1150"><path id="ProcessOnPath1151" d="M422.25 537.0C368.55 537.0 341.7 537.0 303.2360679774998 537.0" stroke="#323232" stroke-width="2.0" stroke-dasharray="none" fill="none" marker-end="url(#ProcessOnMarker1152)"/></g><g id="ProcessOnG1154" transform="matrix(1.0,0.0,0.0,1.0,199.5,506.5)" opacity="1.0"><path id="ProcessOnPath1155" d="M0.0 30.5C0.0 -10.166666666666666 88.5 -10.166666666666666 88.5 30.5C88.5 71.16666666666667 0.0 71.16666666666667 0.0 30.5Z" stroke="#323232" stroke-width="2.0" stroke-dasharray="none" opacity="1.0" fill="#ffffff"/><g id="ProcessOnG1156" transform="matrix(1.0,0.0,0.0,1.0,10.0,22.375)"><text id="ProcessOnText1157" fill="#000000" font-size="13" x="33.25" y="13.325" font-family="微软雅黑" font-weight="normal" font-style="normal" text-decoration="none" family="微软雅黑" text-anchor="middle" size="13">Termine</text></g></g><g id="ProcessOnG1158" transform="matrix(1.0,0.0,0.0,1.0,99.0,351.5)" opacity="1.0"><path id="ProcessOnPath1159" d="M0.0 0.0L197.0 0.0L197.0 44.0L0.0 44.0Z" stroke="none" stroke-width="0.0" stroke-dasharray="none" opacity="1.0" fill="none"/><g id="ProcessOnG1160" transform="matrix(1.0,0.0,0.0,1.0,0.0,-2.375)"><text id="ProcessOnText1161" fill="#000000" font-size="13" x="97.5" y="13.325" font-family="微软雅黑" font-weight="normal" font-style="normal" text-decoration="none" family="微软雅黑" text-anchor="middle" size="13">sel_de[0]&lt;='1'</text><text id="ProcessOnText1162" fill="#000000" font-size="13" x="97.5" y="29.575" font-family="微软雅黑" font-weight="normal" font-style="normal" text-decoration="none" family="微软雅黑" text-anchor="middle" size="13">sel_de[1]&lt;='1'</text><text id="ProcessOnText1163" fill="#000000" font-size="13" x="97.5" y="45.825" font-family="微软雅黑" font-weight="normal" font-style="normal" text-decoration="none" family="微软雅黑" text-anchor="middle" size="13">sel_de[2]&lt;='1'</text></g></g><g id="ProcessOnG1164" transform="matrix(1.0,0.0,0.0,1.0,145.25,147.75)" opacity="1.0"><path id="ProcessOnPath1165" d="M0.0 0.0L197.0 0.0L197.0 44.0L0.0 44.0Z" stroke="none" stroke-width="0.0" stroke-dasharray="none" opacity="1.0" fill="none"/><g id="ProcessOnG1166" transform="matrix(1.0,0.0,0.0,1.0,0.0,-2.375)"><text id="ProcessOnText1167" fill="#000000" font-size="13" x="97.5" y="13.325" font-family="微软雅黑" font-weight="normal" font-style="normal" text-decoration="none" family="微软雅黑" text-anchor="middle" size="13">finjeu&lt;='1'</text><text id="ProcessOnText1168" fill="#000000" font-size="13" x="97.5" y="29.575" font-family="微软雅黑" font-weight="normal" font-style="normal" text-decoration="none" family="微软雅黑" text-anchor="middle" size="13">finlance&lt;='0'</text><text id="ProcessOnText1169" fill="#000000" font-size="13" x="97.5" y="45.825" font-family="微软雅黑" font-weight="normal" font-style="normal" text-decoration="none" family="微软雅黑" text-anchor="middle" size="13">reset&lt;='0'</text></g></g><g id="ProcessOnG1170" transform="matrix(1.0,0.0,0.0,1.0,587.0,153.75)" opacity="1.0"><path id="ProcessOnPath1171" d="M0.0 0.0L197.0 0.0L197.0 44.0L0.0 44.0Z" stroke="none" stroke-width="0.0" stroke-dasharray="none" opacity="1.0" fill="none"/><g id="ProcessOnG1172" transform="matrix(1.0,0.0,0.0,1.0,0.0,-2.375)"><text id="ProcessOnText1173" fill="#000000" font-size="13" x="97.5" y="13.325" font-family="微软雅黑" font-weight="normal" font-style="normal" text-decoration="none" family="微软雅黑" text-anchor="middle" size="13">finjeu&lt;='0'</text><text id="ProcessOnText1174" fill="#000000" font-size="13" x="97.5" y="29.575" font-family="微软雅黑" font-weight="normal" font-style="normal" text-decoration="none" family="微软雅黑" text-anchor="middle" size="13">finlance&lt;='0'</text><text id="ProcessOnText1175" fill="#000000" font-size="13" x="97.5" y="45.825" font-family="微软雅黑" font-weight="normal" font-style="normal" text-decoration="none" family="微软雅黑" text-anchor="middle" size="13">reset&lt;='1'</text></g></g><g id="ProcessOnG1176" transform="matrix(1.0,0.0,0.0,1.0,784.0,385.5)" opacity="1.0"><path id="ProcessOnPath1177" d="M0.0 0.0L197.0 0.0L197.0 44.0L0.0 44.0Z" stroke="none" stroke-width="0.0" stroke-dasharray="none" opacity="1.0" fill="none"/><g id="ProcessOnG1178" transform="matrix(1.0,0.0,0.0,1.0,0.0,-2.375)"><text id="ProcessOnText1179" fill="#000000" font-size="13" x="97.5" y="13.325" font-family="微软雅黑" font-weight="normal" font-style="normal" text-decoration="none" family="微软雅黑" text-anchor="middle" size="13">finjeu&lt;='0'</text><text id="ProcessOnText1180" fill="#000000" font-size="13" x="97.5" y="29.575" font-family="微软雅黑" font-weight="normal" font-style="normal" text-decoration="none" family="微软雅黑" text-anchor="middle" size="13">finlance&lt;='0'</text><text id="ProcessOnText1181" fill="#000000" font-size="13" x="97.5" y="45.825" font-family="微软雅黑" font-weight="normal" font-style="normal" text-decoration="none" family="微软雅黑" text-anchor="middle" size="13">reset&lt;='0'</text></g></g><g id="ProcessOnG1182" transform="matrix(1.0,0.0,0.0,1.0,788.0,515.0)" opacity="1.0"><path id="ProcessOnPath1183" d="M0.0 0.0L197.0 0.0L197.0 44.0L0.0 44.0Z" stroke="none" stroke-width="0.0" stroke-dasharray="none" opacity="1.0" fill="none"/><g id="ProcessOnG1184" transform="matrix(1.0,0.0,0.0,1.0,0.0,-2.375)"><text id="ProcessOnText1185" fill="#000000" font-size="13" x="97.5" y="13.325" font-family="微软雅黑" font-weight="normal" font-style="normal" text-decoration="none" family="微软雅黑" text-anchor="middle" size="13">finjeu&lt;='0'</text><text id="ProcessOnText1186" fill="#000000" font-size="13" x="97.5" y="29.575" font-family="微软雅黑" font-weight="normal" font-style="normal" text-decoration="none" family="微软雅黑" text-anchor="middle" size="13">finlance&lt;='0'</text><text id="ProcessOnText1187" fill="#000000" font-size="13" x="97.5" y="45.825" font-family="微软雅黑" font-weight="normal" font-style="normal" text-decoration="none" family="微软雅黑" text-anchor="middle" size="13">reset&lt;='0'</text></g></g><g id="ProcessOnG1188" transform="matrix(1.0,0.0,0.0,1.0,788.0,640.5)" opacity="1.0"><path id="ProcessOnPath1189" d="M0.0 0.0L197.0 0.0L197.0 44.0L0.0 44.0Z" stroke="none" stroke-width="0.0" stroke-dasharray="none" opacity="1.0" fill="none"/><g id="ProcessOnG1190" transform="matrix(1.0,0.0,0.0,1.0,0.0,-2.375)"><text id="ProcessOnText1191" fill="#000000" font-size="13" x="97.5" y="13.325" font-family="微软雅黑" font-weight="normal" font-style="normal" text-decoration="none" family="微软雅黑" text-anchor="middle" size="13">finjeu&lt;='0'</text><text id="ProcessOnText1192" fill="#000000" font-size="13" x="97.5" y="29.575" font-family="微软雅黑" font-weight="normal" font-style="normal" text-decoration="none" family="微软雅黑" text-anchor="middle" size="13">finlance&lt;='0'</text><text id="ProcessOnText1193" fill="#000000" font-size="13" x="97.5" y="45.825" font-family="微软雅黑" font-weight="normal" font-style="normal" text-decoration="none" family="微软雅黑" text-anchor="middle" size="13">reset&lt;='0'</text></g></g><g id="ProcessOnG1194" transform="matrix(1.0,0.0,0.0,1.0,303.0,567.5)" opacity="1.0"><path id="ProcessOnPath1195" d="M0.0 0.0L197.0 0.0L197.0 44.0L0.0 44.0Z" stroke="none" stroke-width="0.0" stroke-dasharray="none" opacity="1.0" fill="none"/><g id="ProcessOnG1196" transform="matrix(1.0,0.0,0.0,1.0,0.0,-2.375)"><text id="ProcessOnText1197" fill="#000000" font-size="13" x="97.5" y="13.325" font-family="微软雅黑" font-weight="normal" font-style="normal" text-decoration="none" family="微软雅黑" text-anchor="middle" size="13">finjeu&lt;='0'</text><text id="ProcessOnText1198" fill="#000000" font-size="13" x="97.5" y="29.575" font-family="微软雅黑" font-weight="normal" font-style="normal" text-decoration="none" family="微软雅黑" text-anchor="middle" size="13">finlance&lt;='1'</text><text id="ProcessOnText1199" fill="#000000" font-size="13" x="97.5" y="45.825" font-family="微软雅黑" font-weight="normal" font-style="normal" text-decoration="none" family="微软雅黑" text-anchor="middle" size="13">reset&lt;='0'</text></g></g><g id="ProcessOnG1200"><path id="ProcessOnPath1201" d="M243.75 506.5C243.75 418.9 243.75000000000003 375.1 243.75 302.7360679774998" stroke="#323232" stroke-width="2.0" stroke-dasharray="none" fill="none" marker-end="url(#ProcessOnMarker1202)"/></g><g id="ProcessOnG1204" transform="matrix(1.0,0.0,0.0,1.0,57.0,515.0)" opacity="1.0"><path id="ProcessOnPath1205" d="M0.0 0.0L197.0 0.0L197.0 44.0L0.0 44.0Z" stroke="none" stroke-width="0.0" stroke-dasharray="none" opacity="1.0" fill="none"/><g id="ProcessOnG1206" transform="matrix(1.0,0.0,0.0,1.0,0.0,-2.375)"><text id="ProcessOnText1207" fill="#000000" font-size="13" x="97.5" y="13.325" font-family="微软雅黑" font-weight="normal" font-style="normal" text-decoration="none" family="微软雅黑" text-anchor="middle" size="13">finjeu&lt;='0'</text><text id="ProcessOnText1208" fill="#000000" font-size="13" x="97.5" y="29.575" font-family="微软雅黑" font-weight="normal" font-style="normal" text-decoration="none" family="微软雅黑" text-anchor="middle" size="13">finlance&lt;='1'</text><text id="ProcessOnText1209" fill="#000000" font-size="13" x="97.5" y="45.825" font-family="微软雅黑" font-weight="normal" font-style="normal" text-decoration="none" family="微软雅黑" text-anchor="middle" size="13">reset&lt;='0'</text></g></g><g id="ProcessOnG1210" transform="matrix(1.0,0.0,0.0,1.0,262.0,496.5)" opacity="1.0"><path id="ProcessOnPath1211" d="M0.0 0.0L197.0 0.0L197.0 44.0L0.0 44.0Z" stroke="none" stroke-width="0.0" stroke-dasharray="none" opacity="1.0" fill="none"/><g id="ProcessOnG1212" transform="matrix(1.0,0.0,0.0,1.0,0.0,13.875)"><text id="ProcessOnText1213" fill="#000000" font-size="13" x="97.5" y="13.325" font-family="微软雅黑" font-weight="normal" font-style="normal" text-decoration="none" family="微软雅黑" text-anchor="middle" size="13"> lancer&lt;='1'</text></g></g><g id="ProcessOnG1214"><path id="ProcessOnPath1215" d="M259.22354286469243 508.8977774788672C307.961903551414 327.00373911840427 549.5274523080744 424.19008433564125 660.7775947224675 291.60732743667086" stroke="#323232" stroke-width="2.0" stroke-dasharray="none" fill="none" marker-end="url(#ProcessOnMarker1216)"/></g><g id="ProcessOnG1218" transform="matrix(1.0,0.0,0.0,1.0,376.125,336.0)" opacity="1.0"><path id="ProcessOnPath1219" d="M0.0 0.0L197.0 0.0L197.0 44.0L0.0 44.0Z" stroke="none" stroke-width="0.0" stroke-dasharray="none" opacity="1.0" fill="none"/><g id="ProcessOnG1220" transform="matrix(1.0,0.0,0.0,1.0,0.0,13.875)"><text id="ProcessOnText1221" fill="#000000" font-size="13" x="97.5" y="13.325" font-family="微软雅黑" font-weight="normal" font-style="normal" text-decoration="none" family="微软雅黑" text-anchor="middle" size="13">sel_de&lt;='0'</text></g></g><g id="ProcessOnG1222"><path id="ProcessOnPath1223" d="M243.75 567.5L243.75 596.0L243.75 596.0L243.75 609.2639320225002" stroke="#323232" stroke-width="2.0" stroke-dasharray="none" fill="none" marker-end="url(#ProcessOnMarker1224)"/></g><g id="ProcessOnG1226" transform="matrix(1.0,0.0,0.0,1.0,145.25,642.5)" opacity="1.0"><path id="ProcessOnPath1227" d="M0.0 0.0L197.0 0.0L197.0 44.0L0.0 44.0Z" stroke="none" stroke-width="0.0" stroke-dasharray="none" opacity="1.0" fill="none"/><g id="ProcessOnG1228" transform="matrix(1.0,0.0,0.0,1.0,0.0,13.875)"><text id="ProcessOnText1229" fill="#000000" font-size="13" x="97.5" y="13.325" font-family="微软雅黑" font-weight="normal" font-style="normal" text-decoration="none" family="微软雅黑" text-anchor="middle" size="13">active_de(2:0)</text></g></g></g></g></svg>